<svg width="22" height="16" viewBox="0 0 22 16" fill="none" xmlns="http://www.w3.org/2000/svg">
<path d="M19.7083 0.666649H2.29165C1.0285 0.666649 0 1.69515 0 2.95834V13.0417C0 14.3048 1.0285 15.3333 2.29165 15.3333H19.7083C20.9715 15.3333 22 14.3048 22 13.0417V2.95834C22 1.69515 20.9715 0.666649 19.7083 0.666649ZM21.0833 13.0416C21.0833 13.7997 20.4664 14.4167 19.7083 14.4167H2.29165C1.53355 14.4167 0.916652 13.7997 0.916652 13.0416V2.95834C0.916652 2.20025 1.53355 1.58334 2.29165 1.58334H19.7083C20.4664 1.58334 21.0833 2.20025 21.0833 2.95834V13.0416H21.0833Z" fill="#111111"/>
<path d="M21.5417 3.41665H0.458348C0.205348 3.41665 0 3.622 0 3.875V6.625C0 6.878 0.205348 7.08334 0.458348 7.08334H21.5417C21.7947 7.08334 22 6.878 22 6.625V3.875C22 3.622 21.7947 3.41665 21.5417 3.41665ZM21.0833 6.16665H0.916652V4.3333H21.0833V6.16665H21.0833Z" fill="#111111"/>
<path d="M8.70835 9.83334H3.20835C2.95535 9.83334 2.75 10.0387 2.75 10.2917C2.75 10.5447 2.95535 10.75 3.20835 10.75H8.70835C8.96135 10.75 9.1667 10.5446 9.1667 10.2916C9.1667 10.0386 8.96135 9.83334 8.70835 9.83334Z" fill="#111111"/>
<path d="M8.70835 11.6667H3.20835C2.95535 11.6667 2.75 11.872 2.75 12.125C2.75 12.378 2.95535 12.5834 3.20835 12.5834H8.70835C8.96135 12.5834 9.1667 12.378 9.1667 12.125C9.16665 11.872 8.96135 11.6667 8.70835 11.6667Z" fill="#111111"/>
<path d="M17.8751 8.91666H16.9585C16.2004 8.91666 15.5835 9.53356 15.5835 10.2917V11.2083C15.5835 11.9664 16.2004 12.5833 16.9585 12.5833H17.8751C18.6332 12.5833 19.2501 11.9664 19.2501 11.2083V10.2917C19.2501 9.5336 18.6332 8.91666 17.8751 8.91666ZM18.3335 11.2084C18.3335 11.4614 18.1281 11.6667 17.8751 11.6667H16.9585C16.7055 11.6667 16.5001 11.4614 16.5001 11.2084V10.2917C16.5001 10.0387 16.7055 9.83335 16.9585 9.83335H17.8751C18.1281 9.83335 18.3335 10.0387 18.3335 10.2917V11.2084Z" fill="#111111"/>
</svg>
