<?xml version="1.0" encoding="UTF-8"?>
<!DOCTYPE svg PUBLIC "-//W3C//DTD SVG 1.1//EN" "http://www.w3.org/Graphics/SVG/1.1/DTD/svg11.dtd">
<!-- Creator: CorelDRAW -->
<svg xmlns="http://www.w3.org/2000/svg" xml:space="preserve" width="20px" height="20px" version="1.1" style="shape-rendering:geometricPrecision; text-rendering:geometricPrecision; image-rendering:optimizeQuality; fill-rule:evenodd; clip-rule:evenodd"
viewBox="0 0 7.11 7.11"
 xmlns:xlink="http://www.w3.org/1999/xlink"
 xmlns:xodm="http://www.corel.com/coreldraw/odm/2003">
 <defs>
  <style type="text/css">
   <![CDATA[
    .fil0 {fill:#30A3DC}
   ]]>
  </style>
 </defs>
 <g id="Слой_x0020_1">
  <metadata id="CorelCorpID_0Corel-Layer"/>
  <path class="fil0" d="M3.12 4.81c0.01,0 0.16,-0.16 0.17,-0.18l0.53 -0.52c0,-0.01 0,0 0,-0.01 0.02,0.01 0.01,0 0.03,0.04l0.59 1.22c0,0.02 0.01,0.03 0.02,0.05 0,0.01 0.01,0.02 0.02,0.04 0.01,0.03 0.03,0.06 0.04,0.09l0.3 0.63c0.02,0.04 0.03,0.06 0.05,0.1l0.13 0.27c0.01,0.03 0.02,0.06 0.04,0.09l0.17 0.36c0.02,0.03 0.03,0.06 0.05,0.08 0.02,0.02 0.06,0.04 0.09,0.04l0.04 0c0.08,0 0.1,-0.04 0.15,-0.09 0.09,-0.09 0.17,-0.17 0.26,-0.26 0.08,-0.07 0.07,-0.11 0.05,-0.2 -0.01,-0.07 -0.02,-0.15 -0.04,-0.22 -0.13,-0.67 -0.25,-1.36 -0.38,-2.02l-0.05 -0.23c0,-0.02 -0.01,-0.03 -0.01,-0.05 0,-0.02 -0.01,-0.04 -0.01,-0.05 0,-0.01 0,-0.02 0,-0.03 -0.01,-0.02 0,-0.01 -0.01,-0.01 0,-0.04 -0.12,-0.65 -0.13,-0.72 -0.01,-0.05 -0.02,-0.1 -0.03,-0.15l-0.06 -0.28c0.03,-0.02 1.23,-1.23 1.3,-1.3l0.27 -0.3c0.2,-0.23 0.52,-0.72 0.38,-1 -0.13,-0.23 -0.36,-0.23 -0.58,-0.16l-0.04 0.02c-0.07,0.02 -0.26,0.14 -0.32,0.18 -0.01,0.01 -0.02,0.02 -0.04,0.03 -0.09,0.06 -0.16,0.12 -0.25,0.19l-0.23 0.21c-0.08,0.08 -0.2,0.21 -0.29,0.29 -0.17,0.17 -0.33,0.34 -0.51,0.51 -0.03,0.04 -0.49,0.49 -0.5,0.51l-2.25 -0.43c-0.31,-0.06 -0.62,-0.12 -0.93,-0.18 -0.17,-0.03 -0.35,-0.07 -0.53,-0.1 -0.22,-0.05 -0.19,-0.02 -0.4,0.18 -0.05,0.06 -0.1,0.11 -0.16,0.16 -0.03,0.03 -0.04,0.07 -0.05,0.1l0 0.06c0,0.02 0.02,0.05 0.03,0.07 0.04,0.05 0.29,0.15 0.36,0.19l0.27 0.13c0.08,0.03 0.14,0.07 0.22,0.1 0.04,0.02 0.06,0.03 0.1,0.05 0.04,0.02 0.07,0.03 0.11,0.05 0.12,0.05 0.3,0.15 0.43,0.21 0.07,0.03 0.14,0.07 0.21,0.1 0.07,0.03 0.15,0.07 0.22,0.1 0.07,0.03 0.14,0.07 0.21,0.1 0.1,0.04 0.33,0.16 0.43,0.2 0.06,0.03 0.23,0.12 0.32,0.16 0.03,0.01 0.07,0.03 0.1,0.05l-1.24 1.25 -0.25 -0.08c-0.1,-0.02 -0.75,-0.21 -0.8,-0.21 0,-0.01 -0.08,-0.03 -0.1,-0.03 -0.16,-0.04 -0.18,-0.06 -0.29,0.06 -0.03,0.02 -0.05,0.04 -0.07,0.07 -0.01,0.01 -0.02,0.02 -0.03,0.03l-0.18 0.18c-0.02,0.02 -0.04,0.06 -0.05,0.1l0 0.05c0,0.02 0.01,0.03 0.01,0.05 0.03,0.06 0.17,0.12 0.25,0.16l0.26 0.15c0.14,0.07 0.31,0.17 0.44,0.24 0.04,0.02 0.06,0.04 0.09,0.05l0.27 0.15c0.03,0.02 0.06,0.03 0.09,0.05 0.11,0.06 0.09,0.03 0.14,0.13l0.34 0.61c0.02,0.04 0.03,0.06 0.05,0.09l0.34 0.62c0.02,0.04 0.03,0.05 0.06,0.08 0.02,0.02 0.05,0.03 0.08,0.03l0.04 0c0.03,0 0.06,-0.01 0.09,-0.03l0.27 -0.27c0.11,-0.11 0.13,-0.12 0.09,-0.29 -0.01,-0.03 -0.01,-0.07 -0.02,-0.11l-0.3 -1.07 0.51 -0.51c0.01,-0.01 0.01,-0.01 0.02,-0.02z"/>
 </g>
</svg>
